<?xml version="1.0" encoding="UTF-8"?>
<svg id="Calque_10" data-name="Calque 10" xmlns="http://www.w3.org/2000/svg" viewBox="0 0 1024 1024">
  <defs>
    <style>
      .cls-1 {
        fill: #fff;
      }
    </style>
  </defs>
  <path class="cls-1" d="M62,784.81c0-182.46,0-364.91,0-547.37,.41-.75,1.05-1.45,1.2-2.24,7.98-42.17,38.64-68.08,81.71-68.16,95.02-.19,190.04,0,285.06-.17,7.42-.01,12.58,2.47,17.28,8.15,20.88,25.22,42.24,50.04,63.02,75.34,4.17,5.08,8.38,6.83,14.8,6.82,116.07-.18,232.14-.19,348.21-.01,8.68,.01,17.67,.62,26,2.86,37.98,10.22,60.84,40.12,60.89,79.82,.17,144.43,.26,288.86-.28,433.29-.05,12.18-2.81,25.35-8.02,36.3-15.2,31.97-42.14,45.92-77.21,45.91-242.08-.11-484.17-.05-726.25-.07-4.38,0-8.78-.03-13.14-.45-22.3-2.12-40.49-11.86-55.02-29-10.16-11.98-14.54-26.28-18.26-41Z"/>
</svg>