<?xml version="1.0" encoding="UTF-8"?>
<svg id="Calque_14" data-name="Calque 14" xmlns="http://www.w3.org/2000/svg" viewBox="0 0 1024 1024">
  <defs>
    <style>
      .cls-1 {
        fill: #fff;
      }
    </style>
  </defs>
  <path class="cls-1" d="M812.89,516.98c-3.49,8.57-5.69,18-10.75,25.52-11,16.36-27.82,22.34-47.09,22.32-57.61-.03-115.23-.02-172.84-.01-12.85,0-15.7,2.89-15.7,15.89,0,57.61,0,115.23,0,172.84,0,15.15-3.64,29.12-14.48,40.23-16.09,16.49-35.31,21.17-57.31,14.02-18.39-5.97-33.12-24.46-34.75-43.86-.5-6.02-.81-12.07-.82-18.11-.06-55.27-.03-110.54-.04-165.81,0-12.1-3.11-15.2-15.22-15.2-57.81,0-115.62,0-173.43,0-15.15,0-29.12-3.62-40.25-14.43-16.53-16.06-21.23-35.27-14.1-57.28,5.96-18.41,24.48-33.21,43.8-34.82,6.02-.5,12.07-.82,18.11-.82,55.27-.06,110.54-.03,165.81-.04,12.17,0,15.28-3.08,15.28-15.14,0-57.81-.01-115.62,.02-173.43,0-13.81,3.02-26.66,12.05-37.63,8.81-10.7,19.91-17.27,33.66-19.33,.73-.11,1.41-.57,2.11-.86,3.91,0,7.81,0,11.72,0,.7,.29,1.38,.75,2.11,.86,13.74,2.05,24.85,8.63,33.66,19.32,9.03,10.96,12.05,23.81,12.05,37.61,.03,57.6,0,115.19,.01,172.79,0,12.9,2.9,15.81,15.78,15.81,57.6,0,115.19,.02,172.79,0,19.27-.01,36.08,5.97,47.07,22.33,5.05,7.52,7.25,16.95,10.74,25.52v11.72Z"/>
</svg>